<svg xmlns="http://www.w3.org/2000/svg" xmlns:xlink="http://www.w3.org/1999/xlink" width="40" zoomAndPan="magnify" viewBox="0 0 375 374.999991" height="40" preserveAspectRatio="xMidYMid meet" version="1.0"><defs><g/><clipPath id="9b8481f84b"><path d="M 12.210938 0 L 362.460938 0 L 362.460938 225 L 12.210938 225 Z M 12.210938 0 " clip-rule="nonzero"/></clipPath></defs><g clip-path="url(#9b8481f84b)"><path fill="#5271ff" d="M 355.691406 0.601562 L 315.648438 0.601562 C 304.363281 0.601562 294.75 8.382812 292.328125 19.347656 L 258.808594 168.894531 L 56.347656 168.894531 L 49.324219 138.015625 L 216.34375 138.015625 C 220.269531 138.015625 223.449219 134.832031 223.449219 130.902344 C 223.449219 126.96875 220.269531 123.789062 216.34375 123.789062 L 46.066406 123.789062 L 39.042969 92.90625 L 148.96875 92.90625 C 152.894531 92.90625 156.074219 89.726562 156.074219 85.792969 C 156.074219 81.859375 152.8125 78.765625 148.882812 78.765625 L 35.785156 78.765625 L 28.761719 47.882812 L 244.597656 47.882812 C 248.523438 47.882812 251.703125 44.703125 251.703125 40.769531 C 251.703125 36.835938 248.523438 33.65625 244.597656 33.65625 L 19.816406 33.65625 C 17.644531 33.65625 15.636719 34.660156 14.300781 36.335938 C 12.964844 38.007812 12.460938 40.269531 12.964844 42.359375 L 43.726562 177.679688 C 44.476562 180.945312 47.320312 183.203125 50.664062 183.203125 L 259.894531 183.203125 L 271.511719 209.816406 L 32.691406 209.816406 C 28.761719 209.816406 25.585938 212.996094 25.585938 216.929688 C 25.585938 220.863281 28.761719 224.042969 32.691406 224.042969 L 282.464844 224.042969 C 284.886719 224.042969 287.0625 222.789062 288.398438 220.78125 C 289.734375 218.769531 289.902344 216.261719 288.984375 214 L 272.015625 175.253906 L 306.285156 22.445312 C 307.289062 17.925781 311.136719 14.828125 315.734375 14.828125 L 355.773438 14.828125 C 359.703125 14.828125 362.878906 11.648438 362.878906 7.714844 C 362.878906 3.78125 359.617188 0.601562 355.691406 0.601562 Z M 355.691406 0.601562 " fill-opacity="1" fill-rule="nonzero"/></g><path fill="#f6931c" d="M 95.300781 240.109375 C 76.742188 240.109375 61.613281 255.257812 61.613281 273.835938 C 61.613281 292.414062 76.742188 307.5625 95.300781 307.5625 C 113.859375 307.5625 128.988281 292.414062 128.988281 273.835938 C 128.988281 255.257812 113.859375 240.109375 95.300781 240.109375 Z M 95.300781 293.335938 C 84.601562 293.335938 75.824219 284.632812 75.824219 273.835938 C 75.824219 263.039062 84.519531 254.335938 95.300781 254.335938 C 106.085938 254.335938 114.777344 263.039062 114.777344 273.835938 C 114.777344 284.632812 106.085938 293.335938 95.300781 293.335938 Z M 95.300781 293.335938 " fill-opacity="1" fill-rule="nonzero"/><path fill="#f6931c" d="M 219.769531 307.5625 C 238.328125 307.5625 253.457031 292.414062 253.457031 273.835938 C 253.457031 255.257812 238.328125 240.109375 219.769531 240.109375 C 201.210938 240.109375 186.082031 255.257812 186.082031 273.835938 C 186.082031 292.414062 201.210938 307.5625 219.769531 307.5625 Z M 219.769531 254.335938 C 230.46875 254.335938 239.246094 263.039062 239.246094 273.835938 C 239.246094 284.632812 230.550781 293.335938 219.769531 293.335938 C 208.984375 293.335938 200.292969 284.632812 200.292969 273.835938 C 200.292969 263.039062 209.070312 254.335938 219.769531 254.335938 Z M 219.769531 254.335938 " fill-opacity="1" fill-rule="nonzero"/><path fill="#5271ff" d="M 180.566406 78.765625 C 176.636719 78.765625 173.460938 81.945312 173.460938 85.878906 C 173.460938 89.8125 176.636719 92.992188 180.566406 92.992188 L 194.441406 92.992188 C 198.371094 92.992188 201.546875 89.8125 201.546875 85.878906 C 201.546875 81.945312 198.371094 78.765625 194.441406 78.765625 Z M 180.566406 78.765625 " fill-opacity="1" fill-rule="nonzero"/><g fill="#272727" fill-opacity="1"><g transform="translate(1.537808, 359.199996)"><g><path d="M 5.613281 0 L 24.089844 0 C 25.960938 0 26.96875 -1.152344 26.96875 -2.398438 C 26.96875 -3.550781 25.960938 -4.796875 24.089844 -4.796875 L 8.347656 -4.796875 L 8.347656 -28.121094 C 8.347656 -29.75 6.910156 -30.566406 5.566406 -30.566406 C 4.125 -30.566406 2.734375 -29.75 2.734375 -28.121094 L 2.734375 -2.589844 C 2.734375 -0.910156 3.550781 0 5.613281 0 Z M 5.613281 0 "/></g></g></g><g fill="#272727" fill-opacity="1"><g transform="translate(31.427562, 359.199996)"><g><path d="M 15.691406 -31.046875 C 14.445312 -31.046875 13.675781 -30.757812 13.195312 -29.703125 L -0.480469 -2.925781 C -1.34375 -1.054688 0.527344 0.480469 2.207031 0.480469 C 3.117188 0.480469 4.125 0.0976562 4.605469 -0.910156 L 7.964844 -7.582031 L 23.417969 -7.582031 L 26.777344 -0.910156 C 27.253906 0 28.3125 0.480469 29.222656 0.480469 C 31.046875 0.480469 32.964844 -0.960938 31.71875 -3.070312 L 18.136719 -29.703125 C 17.660156 -30.664062 16.699219 -31.046875 15.691406 -31.046875 Z M 15.691406 -22.9375 L 21.066406 -12.234375 L 10.316406 -12.234375 Z M 15.691406 -22.9375 "/></g></g></g><g fill="#5271ff" fill-opacity="1"><g transform="translate(67.115929, 359.199996)"><g><path d="M 25 -4.796875 L 8.253906 -4.796875 L 8.253906 -12.765625 L 24.136719 -12.765625 C 25.816406 -12.765625 26.632812 -13.914062 26.632812 -15.066406 C 26.632812 -16.265625 25.769531 -17.464844 24.136719 -17.464844 L 8.253906 -17.464844 L 8.253906 -25.863281 L 25 -25.863281 C 26.632812 -25.863281 27.542969 -27.113281 27.542969 -28.261719 C 27.542969 -29.460938 26.726562 -30.566406 25 -30.566406 L 5.949219 -30.566406 C 4.03125 -30.566406 2.78125 -29.269531 2.78125 -27.734375 L 2.78125 -2.878906 C 2.78125 -1.296875 4.03125 0 5.949219 0 L 25 0 C 26.777344 0 27.640625 -1.152344 27.640625 -2.304688 C 27.640625 -3.503906 26.679688 -4.796875 25 -4.796875 Z M 25 -4.796875 "/></g></g></g><g fill="#5271ff" fill-opacity="1"><g transform="translate(100.028205, 359.199996)"><g><path d="M 0.335938 -7.246094 C 1.96875 -1.246094 9.597656 0.480469 14.585938 0.480469 C 20.585938 0.480469 28.984375 -1.632812 28.984375 -9.261719 C 28.984375 -16.890625 21.785156 -17.179688 15.117188 -17.800781 C 10.414062 -18.136719 6.382812 -18.523438 6.382812 -21.640625 C 6.382812 -25 11.5625 -25.910156 14.15625 -25.910156 C 17.082031 -25.910156 21.402344 -25.527344 22.554688 -22.554688 C 22.9375 -21.6875 23.945312 -21.210938 25 -21.210938 C 26.632812 -21.210938 28.261719 -22.554688 27.734375 -24.328125 C 25.480469 -29.605469 19.097656 -31.046875 14.109375 -31.046875 C 8.109375 -31.046875 0.625 -28.261719 0.625 -21.6875 C 0.625 -14.394531 8.0625 -13.484375 14.585938 -12.957031 C 18.859375 -12.621094 23.226562 -12.234375 23.226562 -9.214844 C 23.226562 -5.421875 17.945312 -4.558594 14.585938 -4.558594 C 11.371094 -4.558594 6.957031 -5.277344 5.902344 -8.398438 C 5.664062 -9.644531 4.511719 -10.269531 3.261719 -10.269531 C 1.582031 -10.269531 -0.144531 -9.117188 0.335938 -7.246094 Z M 0.335938 -7.246094 "/></g></g></g><g fill="#5271ff" fill-opacity="1"><g transform="translate(133.276319, 359.199996)"><g><path d="M 5.664062 -30.566406 C 4.269531 -30.566406 2.925781 -29.511719 2.925781 -27.832031 L 2.925781 -2.496094 C 2.925781 -0.816406 4.320312 0 5.710938 0 C 7.054688 0 8.492188 -0.816406 8.492188 -2.496094 L 8.492188 -18.617188 L 15.546875 -7.628906 C 16.074219 -6.667969 17.179688 -6.09375 18.136719 -6.09375 C 19.097656 -6.09375 20.105469 -6.527344 20.632812 -7.484375 L 27.785156 -18.667969 L 27.785156 -2.496094 C 27.785156 -0.816406 29.125 0 30.519531 0 C 31.863281 0 33.347656 -0.816406 33.347656 -2.496094 L 33.347656 -27.878906 C 33.347656 -29.605469 32.054688 -30.566406 30.664062 -30.566406 C 29.75 -30.566406 28.742188 -30.132812 28.121094 -29.175781 L 18.136719 -13.4375 L 8.109375 -29.125 C 7.535156 -30.039062 6.574219 -30.566406 5.664062 -30.566406 Z M 5.664062 -30.566406 "/></g></g></g><g fill="#5271ff" fill-opacity="1"><g transform="translate(174.008764, 359.199996)"><g><path d="M 25 -4.796875 L 8.253906 -4.796875 L 8.253906 -12.765625 L 24.136719 -12.765625 C 25.816406 -12.765625 26.632812 -13.914062 26.632812 -15.066406 C 26.632812 -16.265625 25.769531 -17.464844 24.136719 -17.464844 L 8.253906 -17.464844 L 8.253906 -25.863281 L 25 -25.863281 C 26.632812 -25.863281 27.542969 -27.113281 27.542969 -28.261719 C 27.542969 -29.460938 26.726562 -30.566406 25 -30.566406 L 5.949219 -30.566406 C 4.03125 -30.566406 2.78125 -29.269531 2.78125 -27.734375 L 2.78125 -2.878906 C 2.78125 -1.296875 4.03125 0 5.949219 0 L 25 0 C 26.777344 0 27.640625 -1.152344 27.640625 -2.304688 C 27.640625 -3.503906 26.679688 -4.796875 25 -4.796875 Z M 25 -4.796875 "/></g></g></g><g fill="#5271ff" fill-opacity="1"><g transform="translate(206.921042, 359.199996)"><g><path d="M 27.6875 -4.703125 L 21.929688 -10.75 C 26.824219 -12.140625 29.222656 -15.691406 29.222656 -20.203125 C 29.222656 -25.960938 24.855469 -30.566406 16.265625 -30.566406 L 5.566406 -30.566406 C 3.933594 -30.566406 2.78125 -29.558594 2.78125 -28.070312 L 2.78125 -2.445312 C 2.78125 -0.863281 4.125 0 5.566406 0 C 6.910156 0 8.347656 -0.863281 8.347656 -2.496094 L 8.347656 -10.078125 L 15.59375 -10.078125 L 24.183594 -0.910156 C 26.582031 1.679688 30.613281 -1.632812 27.6875 -4.703125 Z M 8.347656 -14.730469 L 8.347656 -25.71875 L 16.316406 -25.71875 C 20.824219 -25.71875 23.5625 -23.320312 23.609375 -20.152344 C 23.703125 -17.226562 21.449219 -14.730469 16.316406 -14.730469 Z M 8.347656 -14.730469 "/></g></g></g><g fill="#5271ff" fill-opacity="1"><g transform="translate(240.696892, 359.199996)"><g><path d="M 15.691406 -31.046875 C 14.445312 -31.046875 13.675781 -30.757812 13.195312 -29.703125 L -0.480469 -2.925781 C -1.34375 -1.054688 0.527344 0.480469 2.207031 0.480469 C 3.117188 0.480469 4.125 0.0976562 4.605469 -0.910156 L 7.964844 -7.582031 L 23.417969 -7.582031 L 26.777344 -0.910156 C 27.253906 0 28.3125 0.480469 29.222656 0.480469 C 31.046875 0.480469 32.964844 -0.960938 31.71875 -3.070312 L 18.136719 -29.703125 C 17.660156 -30.664062 16.699219 -31.046875 15.691406 -31.046875 Z M 15.691406 -22.9375 L 21.066406 -12.234375 L 10.316406 -12.234375 Z M 15.691406 -22.9375 "/></g></g></g><g fill="#5271ff" fill-opacity="1"><g transform="translate(276.391802, 359.199996)"><g><path d="M 5.613281 0 L 24.089844 0 C 25.960938 0 26.96875 -1.152344 26.96875 -2.398438 C 26.96875 -3.550781 25.960938 -4.796875 24.089844 -4.796875 L 8.347656 -4.796875 L 8.347656 -28.121094 C 8.347656 -29.75 6.910156 -30.566406 5.566406 -30.566406 C 4.125 -30.566406 2.734375 -29.75 2.734375 -28.121094 L 2.734375 -2.589844 C 2.734375 -0.910156 3.550781 0 5.613281 0 Z M 5.613281 0 "/></g></g></g><g fill="#5271ff" fill-opacity="1"><g transform="translate(306.281548, 359.199996)"><g><path d="M 14.15625 -30.566406 L 4.269531 -30.566406 C 2.542969 -30.566406 1.105469 -29.320312 1.105469 -27.785156 L 1.105469 -2.832031 C 1.105469 -1.296875 2.542969 0 4.269531 0 L 14.15625 0 C 22.890625 0 28.695312 -6.09375 28.695312 -15.257812 C 28.695312 -24.425781 22.890625 -30.566406 14.15625 -30.566406 Z M 14.15625 -4.75 L 6.574219 -4.75 L 6.574219 -25.863281 L 14.15625 -25.863281 C 19.53125 -25.863281 23.175781 -21.59375 23.175781 -15.257812 C 23.175781 -8.925781 19.53125 -4.75 14.15625 -4.75 Z M 14.15625 -4.75 "/></g></g></g><g fill="#5271ff" fill-opacity="1"><g transform="translate(340.057386, 359.199996)"><g><path d="M 15.691406 -31.046875 C 14.445312 -31.046875 13.675781 -30.757812 13.195312 -29.703125 L -0.480469 -2.925781 C -1.34375 -1.054688 0.527344 0.480469 2.207031 0.480469 C 3.117188 0.480469 4.125 0.0976562 4.605469 -0.910156 L 7.964844 -7.582031 L 23.417969 -7.582031 L 26.777344 -0.910156 C 27.253906 0 28.3125 0.480469 29.222656 0.480469 C 31.046875 0.480469 32.964844 -0.960938 31.71875 -3.070312 L 18.136719 -29.703125 C 17.660156 -30.664062 16.699219 -31.046875 15.691406 -31.046875 Z M 15.691406 -22.9375 L 21.066406 -12.234375 L 10.316406 -12.234375 Z M 15.691406 -22.9375 "/></g></g></g></svg>