<svg xmlns="http://www.w3.org/2000/svg" xmlns:xlink="http://www.w3.org/1999/xlink" width="500" zoomAndPan="magnify" viewBox="0 0 375 374.999991" height="500" preserveAspectRatio="xMidYMid meet" version="1.0"><path fill="#5271ff" d="M 374.996094 187.507812 C 374.996094 291.0625 291.054688 375.007812 187.5 375.007812 C 83.945312 375.007812 0 291.0625 0 187.507812 C 0 83.953125 83.945312 0.0117188 187.5 0.0117188 C 291.054688 0.0117188 374.996094 83.953125 374.996094 187.507812 " fill-opacity="1" fill-rule="nonzero"/><path fill="#000000" d="M 183.398438 45.878906 C 146.894531 45.878906 117.3125 75.457031 117.3125 111.964844 C 117.3125 118.328125 120.277344 136.085938 126.695312 145.914062 C 126.695312 145.914062 150.804688 167.96875 183.335938 197.015625 C 154.792969 197.230469 123.761719 197.359375 100.171875 212.867188 C 83.394531 223.902344 70.734375 243.359375 66.832031 263.054688 C 63.746094 278.628906 51.433594 297.8125 76.078125 309.777344 C 86.152344 314.667969 120.234375 342.199219 159.3125 372.886719 C 168.507812 374.273438 177.914062 375.007812 187.496094 375.007812 C 287.003906 375.007812 368.363281 297.472656 374.566406 199.53125 C 303.660156 131.191406 214.136719 53.445312 214.136719 53.445312 C 204.9375 48.277344 188.96875 45.878906 183.390625 45.878906 Z M 183.398438 45.878906 " fill-opacity="0.1961" fill-rule="nonzero"/><path fill="#ffffff" d="M 249.492188 111.726562 C 249.492188 112.808594 249.464844 113.890625 249.410156 114.972656 C 249.359375 116.050781 249.277344 117.128906 249.171875 118.207031 C 249.066406 119.28125 248.933594 120.355469 248.773438 121.425781 C 248.617188 122.496094 248.433594 123.5625 248.21875 124.621094 C 248.007812 125.683594 247.773438 126.738281 247.511719 127.789062 C 247.246094 128.835938 246.957031 129.878906 246.644531 130.914062 C 246.332031 131.949219 245.992188 132.976562 245.628906 133.992188 C 245.261719 135.011719 244.875 136.019531 244.460938 137.019531 C 244.046875 138.019531 243.605469 139.007812 243.144531 139.984375 C 242.683594 140.964844 242.195312 141.929688 241.6875 142.882812 C 241.175781 143.835938 240.644531 144.777344 240.085938 145.707031 C 239.53125 146.632812 238.953125 147.546875 238.351562 148.445312 C 237.75 149.347656 237.128906 150.230469 236.484375 151.097656 C 235.839844 151.96875 235.175781 152.820312 234.488281 153.65625 C 233.800781 154.492188 233.09375 155.3125 232.371094 156.113281 C 231.644531 156.914062 230.898438 157.699219 230.132812 158.460938 C 229.367188 159.226562 228.585938 159.972656 227.78125 160.699219 C 226.980469 161.425781 226.164062 162.132812 225.328125 162.820312 C 224.492188 163.503906 223.636719 164.171875 222.769531 164.8125 C 221.898438 165.457031 221.015625 166.082031 220.117188 166.683594 C 219.21875 167.285156 218.304688 167.863281 217.375 168.417969 C 216.449219 168.972656 215.507812 169.507812 214.554688 170.015625 C 213.597656 170.527344 212.632812 171.011719 211.65625 171.476562 C 210.679688 171.9375 209.6875 172.375 208.691406 172.789062 C 207.691406 173.203125 206.683594 173.59375 205.664062 173.957031 C 204.644531 174.320312 203.617188 174.660156 202.582031 174.972656 C 201.546875 175.289062 200.507812 175.578125 199.457031 175.839844 C 198.40625 176.101562 197.351562 176.339844 196.292969 176.550781 C 195.230469 176.761719 194.164062 176.945312 193.09375 177.105469 C 192.023438 177.265625 190.953125 177.398438 189.875 177.503906 C 188.800781 177.609375 187.71875 177.6875 186.640625 177.742188 C 185.558594 177.792969 184.480469 177.820312 183.398438 177.820312 C 182.316406 177.820312 181.234375 177.792969 180.152344 177.742188 C 179.074219 177.6875 177.996094 177.609375 176.917969 177.503906 C 175.84375 177.398438 174.769531 177.265625 173.699219 177.105469 C 172.628906 176.945312 171.5625 176.761719 170.503906 176.550781 C 169.441406 176.339844 168.386719 176.101562 167.339844 175.839844 C 166.289062 175.578125 165.246094 175.289062 164.210938 174.972656 C 163.175781 174.660156 162.148438 174.320312 161.132812 173.957031 C 160.113281 173.59375 159.105469 173.203125 158.105469 172.789062 C 157.105469 172.375 156.117188 171.9375 155.140625 171.476562 C 154.160156 171.011719 153.195312 170.527344 152.242188 170.015625 C 151.289062 169.507812 150.347656 168.972656 149.417969 168.417969 C 148.492188 167.863281 147.578125 167.285156 146.679688 166.683594 C 145.777344 166.082031 144.894531 165.457031 144.027344 164.8125 C 143.15625 164.171875 142.304688 163.503906 141.46875 162.820312 C 140.632812 162.132812 139.8125 161.425781 139.011719 160.699219 C 138.210938 159.972656 137.425781 159.226562 136.664062 158.460938 C 135.898438 157.699219 135.152344 156.914062 134.425781 156.113281 C 133.699219 155.3125 132.992188 154.492188 132.304688 153.65625 C 131.621094 152.820312 130.953125 151.96875 130.3125 151.097656 C 129.667969 150.230469 129.042969 149.347656 128.441406 148.445312 C 127.839844 147.546875 127.261719 146.632812 126.707031 145.707031 C 126.152344 144.777344 125.617188 143.835938 125.109375 142.882812 C 124.597656 141.929688 124.113281 140.964844 123.648438 139.984375 C 123.1875 139.007812 122.75 138.019531 122.335938 137.019531 C 121.921875 136.019531 121.53125 135.011719 121.167969 133.992188 C 120.804688 132.976562 120.464844 131.949219 120.148438 130.914062 C 119.835938 129.878906 119.546875 128.835938 119.285156 127.785156 C 119.023438 126.738281 118.785156 125.683594 118.574219 124.621094 C 118.363281 123.558594 118.179688 122.496094 118.019531 121.425781 C 117.859375 120.355469 117.726562 119.28125 117.621094 118.207031 C 117.515625 117.128906 117.4375 116.050781 117.382812 114.972656 C 117.332031 113.890625 117.304688 112.808594 117.304688 111.726562 C 117.304688 110.644531 117.332031 109.566406 117.382812 108.484375 C 117.4375 107.40625 117.515625 106.324219 117.621094 105.25 C 117.726562 104.171875 117.859375 103.097656 118.019531 102.027344 C 118.179688 100.957031 118.363281 99.894531 118.574219 98.832031 C 118.785156 97.773438 119.023438 96.714844 119.285156 95.667969 C 119.546875 94.617188 119.835938 93.578125 120.148438 92.542969 C 120.464844 91.507812 120.804688 90.480469 121.167969 89.460938 C 121.53125 88.441406 121.921875 87.433594 122.335938 86.433594 C 122.75 85.433594 123.1875 84.445312 123.648438 83.46875 C 124.113281 82.492188 124.597656 81.523438 125.109375 80.570312 C 125.617188 79.617188 126.152344 78.675781 126.707031 77.75 C 127.261719 76.820312 127.839844 75.90625 128.441406 75.007812 C 129.042969 74.109375 129.667969 73.222656 130.3125 72.355469 C 130.953125 71.484375 131.621094 70.632812 132.304688 69.796875 C 132.992188 68.960938 133.699219 68.144531 134.425781 67.339844 C 135.152344 66.539062 135.898438 65.757812 136.664062 64.992188 C 137.425781 64.226562 138.210938 63.480469 139.011719 62.753906 C 139.8125 62.027344 140.632812 61.320312 141.46875 60.636719 C 142.304688 59.949219 143.15625 59.285156 144.027344 58.640625 C 144.894531 57.996094 145.777344 57.371094 146.679688 56.773438 C 147.578125 56.171875 148.492188 55.59375 149.417969 55.035156 C 150.347656 54.480469 151.289062 53.949219 152.242188 53.4375 C 153.195312 52.929688 154.160156 52.441406 155.140625 51.980469 C 156.117188 51.515625 157.105469 51.078125 158.105469 50.664062 C 159.105469 50.25 160.113281 49.863281 161.132812 49.496094 C 162.148438 49.132812 163.175781 48.792969 164.210938 48.480469 C 165.246094 48.167969 166.289062 47.878906 167.339844 47.613281 C 168.386719 47.351562 169.441406 47.113281 170.503906 46.902344 C 171.5625 46.691406 172.628906 46.507812 173.699219 46.351562 C 174.769531 46.191406 175.84375 46.058594 176.917969 45.953125 C 177.996094 45.847656 179.074219 45.765625 180.152344 45.714844 C 181.234375 45.660156 182.316406 45.632812 183.398438 45.632812 C 184.480469 45.632812 185.558594 45.660156 186.640625 45.714844 C 187.722656 45.765625 188.800781 45.847656 189.875 45.953125 C 190.953125 46.058594 192.023438 46.191406 193.09375 46.351562 C 194.164062 46.507812 195.230469 46.691406 196.292969 46.902344 C 197.351562 47.113281 198.40625 47.351562 199.457031 47.613281 C 200.507812 47.878906 201.546875 48.164062 202.582031 48.480469 C 203.617188 48.792969 204.644531 49.132812 205.664062 49.496094 C 206.683594 49.863281 207.691406 50.25 208.691406 50.664062 C 209.6875 51.078125 210.679688 51.515625 211.65625 51.980469 C 212.632812 52.441406 213.597656 52.929688 214.554688 53.4375 C 215.507812 53.949219 216.449219 54.480469 217.375 55.035156 C 218.304688 55.59375 219.21875 56.171875 220.117188 56.773438 C 221.015625 57.371094 221.898438 57.996094 222.769531 58.640625 C 223.636719 59.285156 224.492188 59.949219 225.328125 60.636719 C 226.164062 61.320312 226.980469 62.027344 227.78125 62.753906 C 228.585938 63.480469 229.367188 64.226562 230.132812 64.992188 C 230.898438 65.757812 231.644531 66.539062 232.371094 67.339844 C 233.09375 68.144531 233.800781 68.960938 234.488281 69.796875 C 235.175781 70.632812 235.839844 71.484375 236.484375 72.355469 C 237.128906 73.222656 237.75 74.109375 238.351562 75.007812 C 238.953125 75.90625 239.53125 76.820312 240.085938 77.75 C 240.644531 78.675781 241.175781 79.617188 241.6875 80.570312 C 242.195312 81.523438 242.683594 82.492188 243.144531 83.46875 C 243.605469 84.445312 244.046875 85.433594 244.460938 86.433594 C 244.875 87.433594 245.261719 88.441406 245.628906 89.460938 C 245.992188 90.480469 246.332031 91.507812 246.644531 92.542969 C 246.957031 93.578125 247.246094 94.617188 247.511719 95.667969 C 247.773438 96.714844 248.007812 97.773438 248.21875 98.832031 C 248.433594 99.894531 248.617188 100.957031 248.773438 102.03125 C 248.933594 103.097656 249.066406 104.171875 249.171875 105.25 C 249.277344 106.328125 249.359375 107.40625 249.410156 108.484375 C 249.464844 109.566406 249.492188 110.644531 249.492188 111.726562 Z M 249.492188 111.726562 " fill-opacity="1" fill-rule="nonzero"/><path fill="#ffffff" d="M 309.414062 262.507812 C 311.910156 278.257812 322.699219 297.09375 298.582031 309.101562 C 274.464844 321.109375 225.929688 328.605469 188.121094 328.605469 C 150.3125 328.605469 100.722656 321.203125 76.074219 309.242188 C 51.429688 297.277344 63.746094 278.085938 66.832031 262.507812 C 70.734375 242.8125 83.390625 223.367188 100.167969 212.335938 C 125.0625 195.964844 158.328125 196.695312 188.121094 196.410156 C 218.5625 196.121094 253.050781 193.933594 278.285156 210.964844 C 294.917969 222.195312 306.261719 242.683594 309.410156 262.507812 Z M 309.414062 262.507812 " fill-opacity="1" fill-rule="nonzero"/><path fill="#ffffff" d="M 187.5 327.351562 L 161.191406 290.042969 L 187.5 227.089844 L 213.808594 290.042969 Z M 187.5 233.875 L 161.191406 196.566406 L 213.808594 196.566406 Z M 187.5 233.875 " fill-opacity="1" fill-rule="nonzero"/></svg>